<svg height="16" viewBox="0 0 16 16" width="16" xmlns="http://www.w3.org/2000/svg"><g fill="#8eef97"><path d="m5.8327617 9.7013925c-.7207587 0-1.3018428.5810885-1.3018428 1.3018425v1.298843h-1.7337907v1.736791h10.4057438v-1.736791h-1.733792v-1.298843c0-.720754-.581088-1.3018425-1.301842-1.3018425z" stroke-width=".867735"/><path d="m7.0957548 2.6994227q-.0758199-.0758199-.1191456-.0974827-.0433256-.0216628-.1733025-.0324943-.129977-.0108314-.4657508-.0324942h-.3574366v-.498245h5.7298167v.043326q.02166.064988.15164 1.2564438.129977 1.1914554.15164 1.2564439v.043326h-.433257v-.043326q0-.010831-.04333-.3682681-.04332-.3574369-.162467-.7257049-.119145-.368268-.335773-.5740649-.411594-.3899308-1.5488921-.3899308h-.1624712q-.7581989 0-.9206701.010831-.1624712.010831-.1733025.1299769-.010831.032494-.010831 3.0544583l.010831 3.0111331q.07582.07582.1299769.097482.054157.021662.2707853.043325.2166283.021662.682379.021662h.2924481v.4982475h-.1299769q-.259954-.032497-1.7980145-.032497-1.418915 0-1.5813861.032497h-.1191456v-.498245h.3574366q.4549193-.010834.552402-.032497.097483-.021662.2057969-.1299769z" stroke-width=".010831"/></g></svg>